<?xml version="1.0" encoding="UTF-8"?>
<svg xmlns="http://www.w3.org/2000/svg" xmlns:xlink="http://www.w3.org/1999/xlink" viewBox="0 0 96 96" width="96px" height="96px">
<g id="surface14342344">
<path style=" stroke:none;fill-rule:nonzero;fill:rgb(24.705882%,78.039217%,38.039216%);fill-opacity:1;" d="M 26.574219 92.640625 C 13.753906 92.640625 3.359375 82.246094 3.359375 69.425781 L 3.359375 26.574219 C 3.359375 13.753906 13.753906 3.359375 26.574219 3.359375 L 69.425781 3.359375 C 82.246094 3.359375 92.640625 13.753906 92.640625 26.574219 L 92.640625 69.425781 C 92.640625 82.246094 82.246094 92.640625 69.425781 92.640625 Z M 26.574219 92.640625 "/>
<path style=" stroke:none;fill-rule:nonzero;fill:rgb(100%,100%,100%);fill-opacity:1;" d="M 16.21875 80.09375 L 20.691406 63.769531 C 17.933594 58.992188 16.480469 53.570312 16.484375 48.015625 C 16.492188 30.644531 30.628906 16.511719 48 16.511719 C 56.433594 16.515625 64.34375 19.796875 70.292969 25.75 C 76.242188 31.707031 79.519531 39.621094 79.519531 48.042969 C 79.511719 65.414062 65.371094 79.546875 48 79.546875 L 47.988281 79.546875 C 42.714844 79.546875 37.53125 78.222656 32.925781 75.710938 Z M 16.21875 80.09375 "/>
<path style=" stroke:none;fill-rule:nonzero;fill:rgb(100%,100%,100%);fill-opacity:1;" d="M 16.21875 80.925781 C 16 80.925781 15.785156 80.839844 15.628906 80.679688 C 15.421875 80.46875 15.339844 80.160156 15.417969 79.878906 L 19.800781 63.882812 C 17.082031 59.058594 15.652344 53.578125 15.652344 48.019531 C 15.660156 30.1875 30.171875 15.683594 48 15.683594 C 56.648438 15.683594 64.773438 19.054688 70.882812 25.164062 C 76.988281 31.277344 80.351562 39.402344 80.347656 48.042969 C 80.339844 65.871094 65.828125 80.378906 48 80.378906 C 42.707031 80.375 37.46875 79.070312 32.820312 76.597656 L 16.429688 80.894531 C 16.359375 80.917969 16.289062 80.925781 16.21875 80.925781 Z M 16.21875 80.925781 "/>
<path style=" stroke:none;fill-rule:nonzero;fill:rgb(81.176472%,84.705883%,86.274511%);fill-opacity:1;" d="M 48 16.511719 C 56.433594 16.515625 64.34375 19.796875 70.292969 25.75 C 76.242188 31.707031 79.519531 39.621094 79.519531 48.042969 C 79.511719 65.414062 65.371094 79.546875 48 79.546875 L 47.988281 79.546875 C 42.714844 79.546875 37.53125 78.222656 32.925781 75.710938 L 16.21875 80.09375 L 20.691406 63.769531 C 17.933594 58.992188 16.480469 53.570312 16.484375 48.015625 C 16.492188 30.644531 30.628906 16.511719 48 16.511719 M 48 79.546875 L 48 79.546875 M 48 79.546875 L 48 79.546875 M 48 14.851562 C 29.714844 14.851562 14.832031 29.730469 14.824219 48.015625 C 14.820312 53.605469 16.230469 59.113281 18.90625 63.988281 L 14.617188 79.65625 C 14.460938 80.230469 14.621094 80.839844 15.039062 81.261719 C 15.355469 81.582031 15.78125 81.757812 16.21875 81.757812 C 16.359375 81.757812 16.5 81.738281 16.640625 81.703125 L 32.71875 77.484375 C 37.414062 79.921875 42.675781 81.207031 47.988281 81.210938 C 66.289062 81.210938 81.171875 66.332031 81.179688 48.042969 C 81.183594 39.179688 77.734375 30.847656 71.472656 24.578125 C 65.207031 18.308594 56.871094 14.855469 48 14.851562 Z M 48 14.851562 "/>
<path style=" stroke:none;fill-rule:nonzero;fill:rgb(25.098041%,76.47059%,31.764707%);fill-opacity:1;" d="M 66.53125 29.511719 C 61.582031 24.5625 55.007812 21.835938 48.007812 21.832031 C 33.5625 21.832031 21.808594 33.578125 21.804688 48.019531 C 21.800781 52.96875 23.1875 57.785156 25.808594 61.957031 L 26.433594 62.945312 L 23.785156 72.609375 L 33.699219 70.011719 L 34.65625 70.578125 C 38.679688 72.964844 43.289062 74.226562 47.992188 74.226562 L 48 74.226562 C 62.441406 74.226562 74.191406 62.480469 74.195312 48.039062 C 74.199219 41.042969 71.476562 34.464844 66.53125 29.511719 Z M 66.53125 29.511719 "/>
<path style=" stroke:none;fill-rule:evenodd;fill:rgb(100%,100%,100%);fill-opacity:1;" d="M 40.121094 34.847656 C 39.535156 33.535156 38.914062 33.507812 38.351562 33.484375 C 37.890625 33.464844 37.367188 33.46875 36.839844 33.46875 C 36.316406 33.46875 35.464844 33.664062 34.742188 34.453125 C 34.019531 35.242188 31.984375 37.144531 31.984375 41.019531 C 31.984375 44.894531 34.804688 48.640625 35.199219 49.164062 C 35.59375 49.6875 40.648438 57.894531 48.652344 61.050781 C 55.304688 63.675781 56.65625 63.152344 58.101562 63.023438 C 59.546875 62.890625 62.761719 61.117188 63.417969 59.277344 C 64.074219 57.4375 64.074219 55.863281 63.878906 55.535156 C 63.679688 55.207031 63.15625 55.011719 62.367188 54.617188 C 61.582031 54.21875 57.707031 52.316406 56.988281 52.054688 C 56.265625 51.792969 55.738281 51.660156 55.214844 52.449219 C 54.6875 53.234375 53.179688 55.011719 52.71875 55.535156 C 52.261719 56.0625 51.800781 56.128906 51.015625 55.734375 C 50.226562 55.335938 47.691406 54.507812 44.679688 51.824219 C 42.339844 49.738281 40.761719 47.160156 40.300781 46.371094 C 39.839844 45.585938 40.25 45.160156 40.644531 44.765625 C 41 44.410156 41.433594 43.84375 41.828125 43.386719 C 42.222656 42.925781 42.351562 42.597656 42.613281 42.074219 C 42.875 41.546875 42.746094 41.085938 42.546875 40.691406 C 42.355469 40.296875 40.824219 36.402344 40.121094 34.847656 Z M 40.121094 34.847656 "/>
</g>
</svg>
